<svg width="76" height="76" viewBox="0 0 76 76" fill="none" xmlns="http://www.w3.org/2000/svg">
<path d="M65.1462 14.4875H61.5363V61.5363H65.1462V57.9025H76V54.2925H65.1462V47.0487H76V43.4388H65.1462V32.585H76V28.9512H65.1462V21.7312H76V18.0975H65.1462V14.4875ZM14.4875 61.5363V65.1462H18.0975V76H21.7075V65.1462H28.9512V76H32.585V65.1462H43.4388V76H47.0487V65.1462H54.2925V76H57.9025V65.1462H61.5363V61.5363H14.4875ZM54.2925 18.0975H21.7075V21.7312H18.0975V54.2925H21.7075V50.6825H28.9512V47.0487H36.195V43.4388H39.805V39.8288H43.4388V36.195H47.0487V32.585H50.6587V25.3412H54.2925V54.2925H57.9025V21.7312H54.2925V18.0975ZM32.585 36.195H25.3412V32.585H32.585V36.195ZM43.4388 28.9512H25.3412V25.3412H43.4388V28.9512ZM21.7075 54.2925H54.2925V57.9025H21.7075V54.2925Z" fill="white"/>
<path d="M47.0487 47.0487H50.6587V50.6825H47.0487V47.0487ZM39.805 47.0487H43.4388V50.6825H39.805V47.0487ZM61.5363 14.4875V10.8775H57.9025V0H54.2925V10.8775H47.0487V0H43.4388V10.8775H32.585V0H28.9512V10.8775H21.7075V0H18.0975V10.8775H14.4875V14.4875H61.5363ZM14.4875 14.4875H10.8538V18.0975H0V21.7312H10.8538V28.9512H0V32.585H10.8538V43.4388H0V47.0487H10.8538V54.2925H0V57.9025H10.8538V61.5363H14.4875V14.4875Z" fill="white"/>
</svg>
