<svg width="66" height="66" viewBox="0 0 66 66" fill="none" xmlns="http://www.w3.org/2000/svg">
<path fill-rule="evenodd" clip-rule="evenodd" d="M9.9 0C7.27436 0 4.75625 1.04303 2.89964 2.89964C1.04303 4.75625 0 7.27436 0 9.9V56.1C0 58.7256 1.04303 61.2437 2.89964 63.1004C4.75625 64.957 7.27436 66 9.9 66H36.3V49.2954C36.3 47.1372 36.3 45.2001 36.5112 43.6293C36.7422 41.9133 37.2768 40.1577 38.7156 38.7156C40.1577 37.2768 41.9166 36.7422 43.6293 36.5112C45.2001 36.3 47.1372 36.3 49.2954 36.3H66V9.9C66 7.27436 64.957 4.75625 63.1004 2.89964C61.2437 1.04303 58.7256 0 56.1 0H9.9ZM65.109 42.9H49.5C47.0745 42.9 45.5862 42.9066 44.5071 43.0518C43.56 43.1805 43.4049 43.3587 43.3851 43.3818H43.3818C43.3587 43.4049 43.1805 43.56 43.0518 44.5071C42.9066 45.5862 42.9 47.0745 42.9 49.5V65.109C43.9692 64.6239 44.9526 63.9474 45.8007 63.0993L63.0993 45.8007C63.9387 44.9622 64.6205 43.9797 65.1123 42.9" fill="white"/>
</svg>
