<svg width="84" height="69" viewBox="0 0 84 69" fill="none" xmlns="http://www.w3.org/2000/svg">
<path d="M51.832 10.6154H73.2443C74.7388 10.6152 76.2169 10.9225 77.5843 11.5176C78.9517 12.1128 80.1785 12.9827 81.1863 14.0719C82.1942 15.1611 82.961 16.4456 83.4378 17.8436C83.9147 19.2416 84.0911 20.7224 83.9559 22.1915L80.5305 59.3453C80.2877 61.9828 79.0549 64.4354 77.074 66.2217C75.0932 68.008 72.5074 68.999 69.8244 69H14.175C11.4919 68.999 8.90614 68.008 6.9253 66.2217C4.94446 64.4354 3.71161 61.9828 3.4688 59.3453L0.0434736 22.1915C-0.181097 19.7332 0.469196 17.2746 1.8825 15.2384L1.67279 10.6154C1.67279 7.80001 2.80585 5.09995 4.82272 3.10917C6.83959 1.1184 9.57506 0 12.4273 0H32.1727C35.0247 0.000601228 37.7598 1.1194 39.7762 3.11031L44.2285 7.50508C46.2449 9.49599 48.98 10.6148 51.832 10.6154ZM7.08233 11.2523C8.23665 10.8312 9.46267 10.6189 10.7604 10.6154H39.7762L35.9744 6.86285C34.9662 5.86739 33.5987 5.30799 32.1727 5.30769H12.4273C11.0187 5.30744 9.66625 5.85278 8.6607 6.82646C7.65515 7.80014 7.07683 9.1244 7.05006 10.5145L7.08233 11.2523Z" fill="white"/>
</svg>
