<svg width="51" height="78" viewBox="0 0 51 78" fill="none" xmlns="http://www.w3.org/2000/svg">
<path d="M51 11.7V35.1H47.0769V39H39.2308V42.9H35.3077V50.7H15.6923V39H19.6154V35.1H23.5385V31.2H31.3846V27.3H35.3077V19.5H31.3846V15.6H23.5385V19.5H19.6154V23.4H15.6923V27.3H11.7692V23.4H7.84615V19.5H3.92308V15.6H0V11.7H3.92308V7.8H7.84615V3.9H15.6923V0H39.2308V3.9H43.1538V7.8H47.0769V11.7H51ZM31.3846 62.4H35.3077V74.1H31.3846V78H19.6154V74.1H15.6923V62.4H19.6154V58.5H31.3846V62.4Z" fill="white"/>
</svg>
