<svg width="58" height="55" viewBox="0 0 58 55" fill="none" xmlns="http://www.w3.org/2000/svg">
<path d="M14.5 33.1246C13.7508 33.1246 13.0983 32.8962 12.5425 32.4392C11.9867 31.9822 11.7087 31.4458 11.7087 30.8299C11.7087 30.214 11.9867 29.6786 12.5425 29.2236C13.0983 28.7686 13.7508 28.5401 14.5 28.5382C15.2492 28.5362 15.9017 28.7646 16.4575 29.2236C17.0133 29.6825 17.2913 30.219 17.2913 30.8329C17.2913 31.4468 17.0133 31.9822 16.4575 32.4392C15.9017 32.8962 15.2492 33.1246 14.5 33.1246ZM29 33.1246C28.2508 33.1246 27.5983 32.8962 27.0425 32.4392C26.4867 31.9822 26.2087 31.4458 26.2087 30.8299C26.2087 30.214 26.4867 29.6786 27.0425 29.2236C27.5983 28.7686 28.2508 28.5401 29 28.5382C29.7492 28.5362 30.4017 28.7646 30.9575 29.2236C31.5133 29.6825 31.7913 30.219 31.7913 30.8329C31.7913 31.4468 31.5133 31.9822 30.9575 32.4392C30.4017 32.8962 29.7492 33.1246 29 33.1246ZM43.5 33.1246C42.7508 33.1246 42.0983 32.8962 41.5425 32.4392C40.9867 31.9822 40.7087 31.4458 40.7087 30.8299C40.7087 30.214 40.9867 29.6786 41.5425 29.2236C42.0983 28.7686 42.7508 28.5401 43.5 28.5382C44.2492 28.5362 44.9017 28.7646 45.4575 29.2236C46.0133 29.6825 46.2913 30.219 46.2913 30.8329C46.2913 31.4468 46.0133 31.9822 45.4575 32.4392C44.9017 32.8962 44.2492 33.1246 43.5 33.1246ZM0 54.3286V6.64579H12.2706V0H16.1747V6.64579H42.108V0H45.733V6.64579H58V54.3286H0ZM3.625 51.3484H54.375V23.3825H3.625V51.3484ZM3.625 20.3993H54.375V9.62596H3.625V20.3993Z" fill="#745EFF"/>
</svg>
